<svg width="80" height="70" viewBox="0 0 80 70" fill="none" xmlns="http://www.w3.org/2000/svg">
<path d="M30.6356 29.9221L26.8182 38.015C25.3378 40.6821 22.574 40.2406 19.5216 40.2406H9.79028L9.89549 30.5574C9.89549 30.3411 9.90751 30.1294 9.94057 29.9221H30.6341H30.6356Z" fill="#5942D9"/>
<path d="M17.7884 23.4865H16.5274C13.7982 23.4865 11.2492 25.5574 10.4332 28.199C10.2212 28.8853 10.1611 29.0535 10.1311 29.6812V56.8012C10.1311 61.4461 8.34863 65.702 4.23067 67.8225L0 70V40.3C0 40.2219 0.00450867 40.1468 0.00450867 40.0673V39.9216C0.145782 35.7032 2.16118 31.0222 4.93253 28.2065C5.88236 27.2363 6.95243 26.3894 8.12169 25.6895C8.13371 25.6805 8.15025 25.673 8.16678 25.661C9.41569 24.7314 12.6499 23.8484 13.1609 23.7493C13.1654 23.7448 13.1684 23.7448 13.1729 23.7448C14.1589 23.7448 15.0726 23.461 15.9729 23.4414C16.586 23.4294 17.1917 23.4459 17.7854 23.503L17.7899 23.4865H17.7884Z" fill="#5942D9"/>
<path d="M38.575 13.5537L34.9034 21.3853C33.4231 24.0524 30.7659 23.6755 27.7135 23.6755H16.2013C7.53556 23.6755 0.342662 31.2773 0.0120232 39.8598C0.00751451 39.8598 0.00450871 39.8598 0 39.8553V28.6147C0 27.176 0.202892 25.7824 0.581624 24.4669C2.3821 18.1626 8.18481 13.5537 15.0621 13.5537H38.5765H38.575Z" fill="#5942D9"/>
<path d="M21.2324 10.0947H12.5877C11.6934 10.0947 11.0292 9.26727 11.223 8.39626L12.1473 4.18086C12.6838 1.74202 14.845 0 17.3444 0H25.9891C26.8818 0 27.5476 0.827462 27.3537 1.69847L26.4294 5.91537C25.8929 8.35421 23.7317 10.0962 21.2324 10.0962V10.0947Z" fill="#5942D9"/>
<path d="M67.0191 40.2678H47.295C43.9841 39.7287 41.4502 36.6336 41.4502 32.9062C41.4502 31.8535 41.5584 30.8338 41.9251 29.9298C41.9251 29.9298 59.99 29.8952 61.1593 29.9643C64.0388 30.3337 71.7322 36.1575 67.0191 40.2678Z" fill="#5942D9"/>
<path d="M72.3451 41.4522C72.3586 42.0094 72.3331 42.571 72.2729 43.1372C72.1467 44.3912 71.8627 45.6376 71.4283 46.833C70.9804 48.0824 70.3808 49.2493 69.6579 50.3125C69.6534 50.3215 69.6459 50.3336 69.6369 50.3426C69.6158 50.3771 69.5948 50.4056 69.5737 50.4402C66.9662 54.2156 62.8242 56.4472 58.559 56.4472H58.5499L43.838 56.4427L48.2085 48.9565C48.6518 48.1726 49.1838 47.5929 49.785 47.1664C50.6341 46.5612 51.6772 46.2879 52.7202 46.2894L56.1799 46.2924C56.4504 46.2833 64.6878 46.1437 64.811 38.1033V37.9261C64.811 33.8759 62.1359 30.518 58.6401 29.9233H61.1124C61.3153 29.9233 61.5182 29.9324 61.7165 29.9489C61.8894 29.9609 62.0547 29.9789 62.22 30.0044C67.3043 30.5105 71.3066 33.9405 72.1738 39.3798C72.2835 40.0601 72.3421 40.7524 72.3466 41.4537L72.3451 41.4522Z" fill="#5942D9"/>
<path d="M79.1028 13.5641L75.1742 20.3039C73.8351 22.5655 71.7897 23.7039 69.358 23.7039H69.3535L52.4864 23.6903C52.2159 23.6979 43.6478 24.0463 43.6478 32.2653C43.6478 36.3185 46.323 39.6749 49.8157 40.2711H47.345C46.9632 40.2711 46.5905 40.2381 46.2373 40.1885C41.1515 39.6854 37.1493 36.2539 36.2821 30.8161C36.0867 29.5967 36.0491 28.3322 36.1829 27.0588C36.3076 25.8033 36.5887 24.5569 37.0245 23.3615C39.0985 17.5903 44.3918 13.5596 49.8954 13.5596H49.9029L79.1043 13.5686H79.0998L79.1028 13.5641Z" fill="#5942D9"/>
<path d="M59.5518 10.0947H50.9071C50.0129 10.0947 49.3486 9.26727 49.5425 8.39626L50.4668 4.18086C51.0033 1.74202 53.1645 0 55.6638 0H64.3085C65.2012 0 65.867 0.827462 65.6731 1.69847L64.7489 5.91537C64.2123 8.35421 62.0512 10.0962 59.5518 10.0962V10.0947Z" fill="#5942D9"/>
<path d="M68.6636 69.8472H27.9424L28.6097 64.9094C29.0019 62.0096 31.1225 59.8711 33.6098 59.8711H74.331L73.6637 64.8088C73.2715 67.7102 71.1509 69.8472 68.6636 69.8472Z" fill="#5942D9"/>
</svg>
